# xmcd
#
# Track frame offsets:
# 150
# 16634
# 41179
# 56672
# 70125
# 84610
# 103233
# 123673
# 149225
# 166029
# 182830
# 202977
# 223544
# 255345
#
# Disc length: 3950 seconds
#
#
# Revision: 4
# Processed by: cddbd v1.5.2PL0 Copyright (c) Steve Scherf et al.
# Submitted via: FreeRIP 2.30 
#
DISCID=cb0f6c0e
DTITLE=Westernhagen - WILLIAMSBURG Deluxe Edition
DYEAR=2009
DGENRE=Blues
TTITLE0=Westernhagen - Hey Hey
TTITLE1=Westernhagen - Schinderhannes
TTITLE2=Westernhagen - Mit Beiden Füssen Auf Dem Boden
TTITLE3=Westernhagen - Komm Schon
TTITLE4=Westernhagen - Liebeswahn
TTITLE5=Westernhagen - Typisch Du
TTITLE6=Westernhagen - Zu Lang Allein
TTITLE7=Westernhagen - Wir Haben Die Schnauze Voll
TTITLE8=Westernhagen - Heute Nacht
TTITLE9=Westernhagen - Lieb Stinkt
TTITLE10=Westernhagen - Ein Mann Zwischen Den Zeilen
TTITLE11=Westernhagen - Aus Dir Mutter
TTITLE12=Westernhagen - Du Bist So Fotogen (Bonustrack)
TTITLE13=Westernhagen - Videotagebuch
EXTD=YEAR: 2009
EXTT0=
EXTT1=
EXTT2=
EXTT3=
EXTT4=
EXTT5=
EXTT6=
EXTT7=
EXTT8=
EXTT9=
EXTT10=
EXTT11=
EXTT12=
EXTT13=
PLAYORDER=
